<svg xmlns="http://www.w3.org/2000/svg" width="142.883" height="54.586" viewBox="0 0 142.883 54.586">
  <g id="Group_28011" data-name="Group 28011" transform="translate(-1248.227 -8187.041)">
    <rect id="Rectangle_13963" data-name="Rectangle 13963" width="142.883" height="54.586" transform="translate(1248.227 8187.041)"/>
    <g id="Group_27423" data-name="Group 27423" transform="translate(1273.227 8201.041)">
      <path id="Path_3272" data-name="Path 3272" d="M1621.973,1201.5h0Z" transform="translate(-1583.817 -1175.651)" fill="none"/>
      <path id="Path_3273" data-name="Path 3273" d="M2556.348,480.392a3.26,3.26,0,0,0,1.2,1.583,7.474,7.474,0,0,0,1.738.925,6.523,6.523,0,0,1,1.195.583,1.8,1.8,0,0,1,.92,1.422,1.641,1.641,0,0,1-.516,1.42,2.05,2.05,0,0,1-1,.475,4.988,4.988,0,0,1-1.3.039,4.6,4.6,0,0,1-1.35-.321c-.259-.1-.509-.226-.794-.357-.039.112-.08.211-.106.314q-.138.519-.273,1.039c-.045.17-.032.213.123.288.232.112.463.224.7.312a4.185,4.185,0,0,0,1.23.278c.4.022.8.026,1.2.026a5,5,0,0,0,1.086-.116,3.985,3.985,0,0,0,1.762-.845,3.134,3.134,0,0,0,.968-1.493,3.825,3.825,0,0,0,.121-1.364,2.977,2.977,0,0,0-.4-1.323,3.735,3.735,0,0,0-1.306-1.252,13.007,13.007,0,0,0-1.7-.822,5.213,5.213,0,0,1-1.136-.643,1.537,1.537,0,0,1-.636-1.422,1.436,1.436,0,0,1,.573-1.018,2.076,2.076,0,0,1,1.267-.411,4.517,4.517,0,0,1,2.292.46c.114.058.144.049.193-.073s.084-.258.124-.387c.089-.28.181-.559.265-.839.039-.131.011-.176-.116-.232-.093-.039-.183-.084-.275-.118a5.582,5.582,0,0,0-1.676-.344,5.45,5.45,0,0,0-2.506.351,3.687,3.687,0,0,0-.978.611,3.057,3.057,0,0,0-1.021,2.044A2.845,2.845,0,0,0,2556.348,480.392Z" transform="translate(-2498.255 -465.917)" fill="#fff"/>
      <path id="Path_3274" data-name="Path 3274" d="M2654.247,150.019a1.9,1.9,0,0,0,1.464,1.037,3.214,3.214,0,0,0,1.552-.114c.4-.127.324-.065.273-.441a.872.872,0,0,0-.032-.146c-.045-.146-.1-.194-.235-.136a2.682,2.682,0,0,1-.8.14,1.51,1.51,0,0,1-.917-.157,1.2,1.2,0,0,1-.637-1.028.112.112,0,0,1,.108-.133,1.13,1.13,0,0,1,.171-.006h1.159c.416,0,.832,0,1.247,0,.2,0,.231-.022.245-.213a2.594,2.594,0,0,0-.314-1.51,1.549,1.549,0,0,0-.8-.68,2.073,2.073,0,0,0-.93-.1,1.733,1.733,0,0,0-1.278.695,2.619,2.619,0,0,0-.51,1.88A2.475,2.475,0,0,0,2654.247,150.019Zm.7-1.882a1.123,1.123,0,0,1,.658-.9.908.908,0,0,1,1.278.577,1.471,1.471,0,0,1,.071.314c.024.168-.021.226-.194.23-.28.006-.559,0-.836,0h0c-.265,0-.529,0-.794,0C2654.941,148.359,2654.909,148.32,2654.944,148.137Z" transform="translate(-2594.108 -143.368)" fill="#fff"/>
      <path id="Path_3275" data-name="Path 3275" d="M2548.3,58.927v3.05c0,.105.045.163.152.163.216,0,.431,0,.646,0a.141.141,0,0,0,.155-.163V55.851a.133.133,0,0,0-.146-.148c-.221,0-.443,0-.667,0-.1,0-.14.058-.142.151v.129Q2548.3,57.457,2548.3,58.927Z" transform="translate(-2490.679 -54.5)" fill="#fff"/>
      <path id="Path_3276" data-name="Path 3276" d="M1586.708,642.817c0-.049,0-.1,0-.151V638.8a2.248,2.248,0,0,1,.024-.228c.054,0,.062,0,.067.007.032.036.064.073.094.114a2.331,2.331,0,0,0,1.437.91,4,4,0,0,0,1.387.039,3.323,3.323,0,0,0,2.083-1.14,4.308,4.308,0,0,0,1.009-2.147,7.007,7.007,0,0,0,0-2.478,4.215,4.215,0,0,0-.626-1.607,3.249,3.249,0,0,0-3.212-1.532,3.464,3.464,0,0,0-1.013.269,3.037,3.037,0,0,0-1.237,1.032,1.538,1.538,0,0,1-.155.161l-.05-.017c-.008-.073-.021-.146-.028-.219-.026-.293-.043-.585-.073-.878-.017-.161-.052-.2-.17-.2-.43,0-.86,0-1.29,0a.142.142,0,0,0-.157.159c0,.037,0,.071,0,.108.015.91.043,1.82.045,2.73.007,2.932,0,5.864,0,8.8,0,.043,0,.086,0,.129.011.144.036.181.183.181.185,0,.368,0,.553,0h.473c.159,0,.319,0,.478,0C1586.678,642.982,1586.7,642.954,1586.708,642.817Zm.013-8.443a2.328,2.328,0,0,1,.757-1.633,1.92,1.92,0,0,1,2.1-.387,2.142,2.142,0,0,1,1.215,1.312,4.566,4.566,0,0,1,.194,2.267,2.988,2.988,0,0,1-.65,1.566,1.859,1.859,0,0,1-1.23.669,2.231,2.231,0,0,1-1.138-.123,1.67,1.67,0,0,1-.613-.424,2.221,2.221,0,0,1-.635-1.529c0-.273,0-.544,0-.817h0C1586.717,634.976,1586.7,634.673,1586.721,634.373Z" transform="translate(-1547.906 -617.138)" fill="#fff"/>
      <path id="Path_3277" data-name="Path 3277" d="M3864.793,631.322a2.925,2.925,0,0,0-1.368-.891,4.04,4.04,0,0,0-1.361-.146,3.536,3.536,0,0,0-2.68,1.3,4.613,4.613,0,0,0-1.059,2.558,5.74,5.74,0,0,0,.195,2.4,3.987,3.987,0,0,0,.958,1.581,3.72,3.72,0,0,0,2.189,1.043,7.16,7.16,0,0,0,1.93-.013,8.94,8.94,0,0,0,1.093-.217,1.491,1.491,0,0,0,.6-.25,4.476,4.476,0,0,0-.308-1.269,6.185,6.185,0,0,1-1.509.351,5.133,5.133,0,0,1-1.178.009,2.721,2.721,0,0,1-1.057-.34,2.318,2.318,0,0,1-1.155-1.947c-.024-.278-.006-.288.278-.288h5.225a.138.138,0,0,0,.15-.123c.019-.12.043-.241.051-.361a5.621,5.621,0,0,0-.176-1.809A3.9,3.9,0,0,0,3864.793,631.322Zm-.983,2.541c-.372,0-.747,0-1.119,0h-2.365c-.231,0-.265-.03-.224-.247a2.419,2.419,0,0,1,1.342-1.9,1.75,1.75,0,0,1,.988-.131,1.846,1.846,0,0,1,1.515,1.5,4.7,4.7,0,0,1,.085.55C3864.045,633.828,3864.01,633.861,3863.81,633.863Z" transform="translate(-3772.481 -616.72)" fill="#fff"/>
      <path id="Path_3278" data-name="Path 3278" d="M4021.665,150.6a2.2,2.2,0,0,0,1.035.316,3.7,3.7,0,0,0,1.5-.207c.1-.034.142-.093.116-.191-.039-.157-.083-.314-.131-.495-.1.022-.192.037-.278.058a2.662,2.662,0,0,1-1.337.065,1.22,1.22,0,0,1-.922-1.093c-.021-.142.016-.174.164-.185.049,0,.1,0,.15,0h2.583a2.623,2.623,0,0,0-.274-1.714,1.6,1.6,0,0,0-.834-.7,2.206,2.206,0,0,0-1.564.1,2.154,2.154,0,0,0-1.106,1.742,2.806,2.806,0,0,0,.091,1.235A1.9,1.9,0,0,0,4021.665,150.6Zm0-2.6a1.307,1.307,0,0,1,.593-.882.917.917,0,0,1,1.314.43,1.567,1.567,0,0,1,.109.411c.023.207-.012.239-.219.241-.265,0-.529,0-.793,0h0c-.28,0-.558,0-.838,0C4021.672,148.188,4021.625,148.136,4021.66,147.994Z" transform="translate(-3931.442 -143.199)" fill="#fff"/>
      <path id="Path_3279" data-name="Path 3279" d="M2293.129,61.992c.1,0,.2,0,.3,0,.374,0,.373,0,.4-.379.006-.082-.013-.174.083-.241a.533.533,0,0,1,.076.073,1.584,1.584,0,0,0,2.05.454,1.994,1.994,0,0,0,1.045-1.4,3.243,3.243,0,0,0-.065-1.76,1.72,1.72,0,0,0-1.555-1.239,1.537,1.537,0,0,0-1.121.338c-.106.095-.2.2-.3.3l-.053,0a1.546,1.546,0,0,1-.021-.2c0-.51,0-1.017,0-1.527,0-.23,0-.458,0-.688,0-.138-.032-.161-.167-.166-.187,0-.373,0-.56,0-.155,0-.185.037-.193.191,0,.049,0,.1,0,.151,0,1.162,0,2.323,0,3.483,0,.8-.025,1.59-.037,2.386,0,.028,0,.058,0,.086A.125.125,0,0,0,2293.129,61.992Zm.848-2.667a1.147,1.147,0,0,1,.727-1,1,1,0,0,1,1.293.506,2.059,2.059,0,0,1,.174,1.439,1.569,1.569,0,0,1-.3.682,1.061,1.061,0,0,1-1.815-.3,2.084,2.084,0,0,1-.084-.826C2293.974,59.653,2293.964,59.488,2293.977,59.324Z" transform="translate(-2240.872 -54.353)" fill="#fff"/>
      <path id="Path_3280" data-name="Path 3280" d="M3605.2,102.237a.127.127,0,0,0,.142.146c.093,0,.187,0,.28,0,.2,0,.213.017.217.224v.129c0,.559,0,1.116,0,1.676a3.689,3.689,0,0,0,.09.916,1.2,1.2,0,0,0,.254.488,1.471,1.471,0,0,0,1.483.262.162.162,0,0,0,.118-.181c-.008-.12-.008-.243-.02-.364-.015-.146-.036-.161-.193-.157-.071,0-.143.006-.215,0a.52.52,0,0,1-.535-.432,2.376,2.376,0,0,1-.058-.445c-.006-.637-.006-1.276,0-1.912,0-.17.032-.2.2-.207.222-.006.444,0,.667,0,.063,0,.123-.011.209-.019,0-.183,0-.344,0-.508,0-.179-.024-.2-.2-.2-.208,0-.414,0-.623,0s-.245-.045-.25-.256c0-.058,0-.114,0-.172V100.6a.993.993,0,0,0-.171.017c-.186.056-.366.12-.551.179s-.192.056-.2.247c0,.151,0,.3,0,.452-.006.131-.041.159-.174.166-.086,0-.173,0-.258,0-.161.009-.2.045-.2.211C3605.2,101.992,3605.207,102.114,3605.2,102.237Z" transform="translate(-3524.844 -98.434)" fill="#fff"/>
      <path id="Path_3281" data-name="Path 3281" d="M3621.277,632.721c-.01-.1-.021-.17-.026-.243-.016-.394-.024-.787-.041-1.183-.009-.176-.05-.211-.226-.211l-.968,0h-.406a2.08,2.08,0,0,0-.019.258c.014.759.044,1.519.047,2.28.007,1.929,0,3.857,0,5.787,0,.284,0,.284.289.284h1.2c.351,0,.351.051.351-.349q0-2.065,0-4.13a3.044,3.044,0,0,1,.443-1.68,1.675,1.675,0,0,1,1.257-.807,4.85,4.85,0,0,1,.707-.007c.173,0,.2-.011.2-.191,0-.28,0-.559,0-.839,0-.187,0-.372,0-.559,0-.161-.037-.2-.183-.208a2.271,2.271,0,0,0-1.4.312,2.658,2.658,0,0,0-1.03,1.2A.462.462,0,0,1,3621.277,632.721Z" transform="translate(-3538.924 -617.342)" fill="#fff"/>
      <path id="Path_3282" data-name="Path 3282" d="M3262.05,147.993c0,1.061,0,2.123.006,3.184,0,.065,0,.129,0,.194,0,.092.043.151.143.151h.624c.1,0,.14-.058.144-.151,0-.058,0-.114,0-.172,0-.7,0-1.4,0-2.108a2.269,2.269,0,0,1,.068-.529.939.939,0,0,1,1.047-.751.762.762,0,0,1,.688.557,2.145,2.145,0,0,1,.093.656c0,.716,0,1.435,0,2.151,0,.058,0,.114,0,.172.008.151.031.174.179.179.166,0,.329,0,.495,0,.238,0,.26-.021.263-.256,0-.759,0-1.521,0-2.28a2.788,2.788,0,0,0-.144-1.015,1.4,1.4,0,0,0-1.568-.921,1.425,1.425,0,0,0-1,.516c-.05.056-.109.105-.164.157l-.063-.024c-.007-.133-.013-.267-.023-.4-.013-.181-.031-.2-.2-.2-.129,0-.258,0-.388,0-.2,0-.228.032-.22.245S3262.05,147.778,3262.05,147.993Z" transform="translate(-3189.057 -143.875)" fill="#fff"/>
      <path id="Path_3283" data-name="Path 3283" d="M2053.184,148.333c-.105.015-.213.022-.321.032a3.539,3.539,0,0,0-1.2.28,1.41,1.41,0,0,0-.882,1.478,1.214,1.214,0,0,0,.725,1.039,1.425,1.425,0,0,0,.779.1,1.335,1.335,0,0,0,.914-.417.634.634,0,0,1,.073-.08.1.1,0,0,1,.165.054,2.169,2.169,0,0,1,.039.232.133.133,0,0,0,.142.131c.179,0,.36,0,.538,0,.129-.006.151-.047.14-.185s-.03-.3-.031-.45c0-.7-.007-1.4-.007-2.108a2.666,2.666,0,0,0-.1-.7,1.341,1.341,0,0,0-1.2-1.018,3.5,3.5,0,0,0-.9.006,4.039,4.039,0,0,0-.8.237c-.148.054-.175.123-.134.271.037.129.088.254.144.407a1.708,1.708,0,0,0,.186-.071,2.078,2.078,0,0,1,1.127-.2.772.772,0,0,1,.735.781A.148.148,0,0,1,2053.184,148.333Zm.17.845c0,.086,0,.172,0,.3a1.159,1.159,0,0,1-.095.564.991.991,0,0,1-1.181.482.713.713,0,0,1-.365-.755.808.808,0,0,1,.572-.663,2.148,2.148,0,0,1,.865-.129C2053.328,148.985,2053.347,149.006,2053.354,149.178Z" transform="translate(-2003.852 -143.538)" fill="#fff"/>
      <path id="Path_3284" data-name="Path 3284" d="M3793.1,62.116c0,.232.021.254.26.256.135,0,.273,0,.408,0,.28,0,.28,0,.28-.29,0-.8,0-1.607,0-2.409a1.085,1.085,0,0,1,.071-.4.907.907,0,0,1,1.059-.611.708.708,0,0,1,.587.409,1.757,1.757,0,0,1,.148.839c.009.617,0,1.233,0,1.85,0,.144,0,.286,0,.43,0,.1.034.172.142.176.23.006.458.009.688,0,.039,0,.09-.058.112-.1a.366.366,0,0,0,.011-.148c0-.781.006-1.564,0-2.345a4.588,4.588,0,0,0-.093-.744,1.377,1.377,0,0,0-1.338-1.147,1.409,1.409,0,0,0-1.224.544.537.537,0,0,0-.056.112c-.135-.093-.105-.187-.105-.267,0-.688,0-1.377,0-2.065,0-.049,0-.1,0-.151a.116.116,0,0,0-.123-.123c-.23,0-.458,0-.688,0-.094,0-.138.065-.138.157v3.786Q3793.1,61,3793.1,62.116Z" transform="translate(-3708.702 -54.729)" fill="#fff"/>
      <path id="Path_3285" data-name="Path 3285" d="M2913.626,544.6c.251,0,.5,0,.753,0,.324,0,.324,0,.324.314v4a5.46,5.46,0,0,0,.207,1.592,2.008,2.008,0,0,0,.416.766,2.181,2.181,0,0,0,1.781.688,3.853,3.853,0,0,0,1.189-.14c.2-.069.211-.049.207-.252-.006-.351-.015-.7-.026-1.054a.822.822,0,0,0-.033-.148c-.062,0-.11,0-.158.009a5.959,5.959,0,0,1-.706.045.954.954,0,0,1-.9-.645,2.957,2.957,0,0,1-.164-1.076c0-1.269,0-2.538,0-3.805v-.129c0-.108.06-.155.159-.161.058,0,.114,0,.172,0h1.727a.664.664,0,0,0,.026-.12c0-.372.007-.747,0-1.119,0-.157-.024-.17-.2-.17l-1.549,0c-.321,0-.34-.019-.34-.342,0-.531,0-1.061,0-1.592,0-.163-.043-.2-.193-.153s-.273.084-.412.125c-.32.1-.639.206-.961.3-.229.067-.247.082-.247.325,0,.372,0,.746,0,1.119,0,.183-.034.213-.215.215-.273,0-.544,0-.817,0-.182,0-.207.017-.209.189,0,.351,0,.7,0,1.054C2913.462,544.585,2913.48,544.6,2913.626,544.6Z" transform="translate(-2847.976 -529.453)" fill="#fff"/>
      <path id="Path_3286" data-name="Path 3286" d="M3004.908,151.136a2.348,2.348,0,0,0,1.1.082,1.852,1.852,0,0,0,1.306-.781,2.353,2.353,0,0,0,.458-1.508,2.28,2.28,0,0,0-.485-1.549,1.819,1.819,0,0,0-.865-.607,2.605,2.605,0,0,0-1-.1,1.9,1.9,0,0,0-1.37.708,2.264,2.264,0,0,0-.486,1.151,2.5,2.5,0,0,0,.508,2.041A1.833,1.833,0,0,0,3004.908,151.136Zm-.1-3.326a1,1,0,0,1,1.738.069,1.984,1.984,0,0,1,.256,1.05,2.019,2.019,0,0,1-.245,1.03,1.022,1.022,0,0,1-.887.585,1.011,1.011,0,0,1-.941-.6,1.787,1.787,0,0,1-.225-.972A1.922,1.922,0,0,1,3004.81,147.811Z" transform="translate(-2936.124 -143.508)" fill="#fff"/>
      <path id="Path_3287" data-name="Path 3287" d="M3180.009,635.6a4.765,4.765,0,0,0,.25,1.7,4.1,4.1,0,0,0,1.169,1.8,3.464,3.464,0,0,0,1.774.854,5.133,5.133,0,0,0,1.582.026,3.889,3.889,0,0,0,1.342-.426,4.076,4.076,0,0,0,2.054-2.921,5.69,5.69,0,0,0,.035-2.1,4.535,4.535,0,0,0-.588-1.646,3.7,3.7,0,0,0-3.218-1.82,4.647,4.647,0,0,0-1.218.092,3.885,3.885,0,0,0-1.121.419,4.023,4.023,0,0,0-1.808,2.291A4.789,4.789,0,0,0,3180.009,635.6Zm2.121-1.549a2.484,2.484,0,0,1,.985-1.338,1.925,1.925,0,0,1,1.442-.239,2.039,2.039,0,0,1,1.4,1.2,4.2,4.2,0,0,1,.37,2.384,3.665,3.665,0,0,1-.585,1.661,1.909,1.909,0,0,1-2.824.493,2.818,2.818,0,0,1-.795-1.2,3.716,3.716,0,0,1-.23-1.476A3.671,3.671,0,0,1,3182.13,634.051Z" transform="translate(-3108.796 -617.487)" fill="#fff"/>
      <path id="Path_3288" data-name="Path 3288" d="M1074.364,495.061a.151.151,0,0,0,.166-.129c.084-.295.176-.589.266-.884l.278-.9c.142-.471.282-.946.428-1.417.063-.2.069-.2.269-.2h3.4c.2,0,.252.041.306.228.086.288.17.577.258.863q.278.891.559,1.781c.056.176.121.353.177.529a.17.17,0,0,0,.191.131c.544,0,1.09,0,1.635,0a1,1,0,0,0,.17-.034c-.123-.389-.239-.757-.353-1.125-.073-.232-.146-.465-.219-.695l-.4-1.245c-.135-.422-.269-.845-.4-1.267s-.262-.832-.394-1.248c-.088-.28-.179-.559-.267-.839-.136-.422-.271-.845-.4-1.267q-.191-.6-.381-1.207c-.131-.409-.265-.815-.4-1.224s-.256-.82-.385-1.228c-.047-.151-.1-.3-.153-.448a.178.178,0,0,0-.2-.129c-.66,0-1.319,0-1.979,0a.192.192,0,0,0-.215.157c-.14.458-.29.912-.437,1.368l-.374,1.187c-.133.415-.269.83-.4,1.246s-.271.858-.407,1.289c-.127.4-.256.8-.383,1.207s-.254.82-.385,1.228-.269.83-.4,1.245-.254.82-.383,1.228-.266.815-.4,1.224c-.054.17-.1.34-.157.536a.8.8,0,0,0,.155.039C1073.288,495.061,1073.826,495.058,1074.364,495.061Zm1.555-5.131c.069-.232.144-.465.215-.7.137-.443.277-.886.415-1.329.086-.273.176-.544.254-.82.105-.372.2-.744.3-1.119.088-.346.161-.7.25-1.043.01-.045.068-.078.1-.116.032.043.084.08.094.127.127.493.241.985.37,1.478.077.3.177.589.269.882.129.409.26.817.392,1.226.135.428.271.858.408,1.286.011.034.026.067.035.1.028.133-.011.191-.146.2s-.286,0-.431,0h-2.237a1.514,1.514,0,0,1-.172,0C1075.919,490.089,1075.887,490.044,1075.919,489.93Z" transform="translate(-1046.725 -472.706)" fill="#fff"/>
      <path id="Path_3289" data-name="Path 3289" d="M1337.11,151.319c.28.779.555,1.562.835,2.34.054.148.112.293.17.439a.171.171,0,0,0,.181.12c.209,0,.415,0,.624,0a.212.212,0,0,0,.217-.168c.084-.25.179-.5.271-.744.17-.454.342-.91.512-1.364.213-.568.428-1.136.635-1.708a.783.783,0,0,0,.1-.43c-.282,0-.557,0-.835,0-.039,0-.095.062-.112.11-.056.14-.1.284-.144.426-.136.422-.273.843-.4,1.267-.144.471-.282.944-.421,1.418a1.749,1.749,0,0,1-.069.172h-.054c-.017-.043-.039-.086-.052-.131-.167-.561-.329-1.125-.5-1.684-.125-.411-.267-.815-.387-1.226-.1-.344-.107-.357-.467-.357h-.613a.783.783,0,0,0,.017.17C1336.779,150.422,1336.949,150.869,1337.11,151.319Z" transform="translate(-1305.047 -146.575)" fill="#fff"/>
      <path id="Path_3290" data-name="Path 3290" d="M1569.1,148.354c-.247.032-.5.054-.746.086a2.177,2.177,0,0,0-1.213.54,1.426,1.426,0,0,0-.273,1.626,1.184,1.184,0,0,0,1.067.678,1.488,1.488,0,0,0,1.263-.462,1.019,1.019,0,0,1,.164-.118c.019.125.03.211.045.3.024.151.056.187.207.194s.316,0,.473,0,.187-.026.179-.191-.034-.357-.037-.536c-.006-.609,0-1.218-.011-1.826a4.357,4.357,0,0,0-.067-.768,1.315,1.315,0,0,0-.682-.964,1.829,1.829,0,0,0-.826-.2,3.238,3.238,0,0,0-1.183.157,2.273,2.273,0,0,0-.327.159.129.129,0,0,0-.062.181c.037.086.058.176.086.265.047.157.1.187.252.112a2.083,2.083,0,0,1,1.19-.2.761.761,0,0,1,.682.757C1569.28,148.309,1569.26,148.333,1569.1,148.354Zm.2.82v.327a1.222,1.222,0,0,1-.112.62,1.024,1.024,0,0,1-1.007.469.64.64,0,0,1-.5-.566.815.815,0,0,1,.645-.925,2.354,2.354,0,0,1,.781-.108C1569.269,149,1569.288,149.015,1569.3,149.174Z" transform="translate(-1530.22 -143.553)" fill="#fff"/>
      <path id="Path_3291" data-name="Path 3291" d="M1074.75,76.415c.222,0,.445,0,.667,0a.172.172,0,0,0,.187-.14c.142-.486.292-.972.437-1.458.058-.2.086-.23.3-.232.258,0,.516,0,.774,0s.531,0,.8,0a.2.2,0,0,1,.217.138c.023.06.049.118.069.181.09.295.174.589.267.884.054.17.114.338.172.508.026.073.064.127.153.127.243,0,.488,0,.731,0,.108,0,.138-.054.1-.157q-.171-.542-.344-1.082c-.134-.415-.271-.828-.4-1.243q-.21-.652-.415-1.308c-.129-.409-.254-.82-.385-1.228-.1-.321-.213-.637-.312-.957a.193.193,0,0,0-.22-.155c-.222,0-.445,0-.667,0-.344,0-.346,0-.445.327,0,.013-.007.028-.011.041-.127.411-.25.82-.381,1.228s-.271.828-.4,1.246c-.166.525-.323,1.052-.491,1.577s-.335,1.033-.5,1.549C1074.6,76.37,1074.626,76.413,1074.75,76.415Zm1.573-2.73c.146-.478.3-.953.441-1.433.075-.254.129-.512.191-.768.026-.108.037-.224.174-.288a.888.888,0,0,1,.052.144,11.107,11.107,0,0,0,.419,1.482c.086.256.166.516.25.774.009.028.013.056.02.084.03.163.009.2-.153.2-.178,0-.357,0-.538,0-.237,0-.473,0-.708,0C1076.306,73.877,1076.278,73.836,1076.323,73.686Z" transform="translate(-1048.703 -68.772)" fill="#fff"/>
      <path id="Path_3292" data-name="Path 3292" d="M460.524,5.753c.213-.022.426-.039.637-.073a3.884,3.884,0,0,0,1.615-.7A5.832,5.832,0,0,0,464.2,3.505a5.711,5.711,0,0,0,.921-2.211A5.89,5.89,0,0,0,465.2.033a.616.616,0,0,0-.028-.133,1.952,1.952,0,0,0-.284.022,7.807,7.807,0,0,0-1.306.4,5.027,5.027,0,0,0-2.145,1.723,6.041,6.041,0,0,0-1.08,3.442c0,.077,0,.155,0,.25A.913.913,0,0,0,460.524,5.753Z" transform="translate(-450.454 0.1)" fill="#fff"/>
      <path id="Path_3293" data-name="Path 3293" d="M.16,268.051c.037.226.069.452.108.678.047.273.082.551.148.82.095.381.211.755.321,1.132a14.06,14.06,0,0,0,.882,2.226,16.706,16.706,0,0,0,1.861,3.031,6.376,6.376,0,0,0,1.415,1.368,3.075,3.075,0,0,0,1.342.531,2.815,2.815,0,0,0,1.422-.237c.469-.189.927-.413,1.4-.6a2.343,2.343,0,0,1,.658-.172A12.861,12.861,0,0,1,11,276.784a2.351,2.351,0,0,1,.927.14c.359.157.716.323,1.076.48a5.909,5.909,0,0,0,1.125.394,2.46,2.46,0,0,0,1.207-.062,3.878,3.878,0,0,0,1.7-1.086,10.115,10.115,0,0,0,1.553-2.125,26.1,26.1,0,0,0,1.521-3.238.327.327,0,0,0,.013-.1c-.318-.183-.628-.346-.923-.536a4.734,4.734,0,0,1-1.882-2.227,5.774,5.774,0,0,1-.409-1.94,5.316,5.316,0,0,1,.4-2.409,6.252,6.252,0,0,1,1.261-1.878c.293-.3.607-.587.934-.9A5.862,5.862,0,0,0,18.12,259.9a5.276,5.276,0,0,0-2.861-.972,5.432,5.432,0,0,0-1.807.166c-.587.174-1.162.389-1.745.579a6.718,6.718,0,0,1-1,.29,2.712,2.712,0,0,1-1.349-.161c-.508-.187-1.013-.381-1.527-.546a5.709,5.709,0,0,0-.977-.232,7.181,7.181,0,0,0-.985-.034,5.054,5.054,0,0,0-1.693.325,5.7,5.7,0,0,0-2.683,2.13,7.447,7.447,0,0,0-1.209,2.831,11.425,11.425,0,0,0-.194,1.508,14.606,14.606,0,0,0,.056,2.19A.574.574,0,0,0,.16,268.051Z" transform="translate(-0.067 -253.341)" fill="#fff"/>
      <path id="Path_3294" data-name="Path 3294" d="M2018.932,636.034c.007,2.4,0,4.8,0,7.207,0,.28.011.29.29.29h1.291c.273,0,.281-.006.281-.273v-1.183c0-.91,0-1.822,0-2.732,0-.08-.028-.172.067-.237.026.013.034.013.039.019.019.022.036.043.054.067a2.3,2.3,0,0,0,1.213.878,3.689,3.689,0,0,0,1.271.148,3.308,3.308,0,0,0,2.21-.925,4.476,4.476,0,0,0,1.336-3.009c.026-.305.015-.615.015-.925a4.618,4.618,0,0,0-.456-2.056,3.409,3.409,0,0,0-1.953-1.854,3.64,3.64,0,0,0-1.523-.168,2.8,2.8,0,0,0-.652.129,3.019,3.019,0,0,0-1.6,1.172,1.446,1.446,0,0,1-.15.157c-.107-.058-.078-.138-.084-.2-.026-.292-.043-.587-.073-.878-.023-.215-.047-.228-.254-.228-.372,0-.747,0-1.118,0-.228,0-.248.017-.245.241C2018.906,633.124,2018.928,634.58,2018.932,636.034Zm1.87-.2c0-.286-.015-.574,0-.861a2.5,2.5,0,0,1,.546-1.465,1.985,1.985,0,0,1,2.34-.6,2.107,2.107,0,0,1,1.059,1.02,3.492,3.492,0,0,1,.372,1.618,4.384,4.384,0,0,1-.247,1.71,2.273,2.273,0,0,1-1,1.245,2.148,2.148,0,0,1-1.2.237,1.943,1.943,0,0,1-1.714-1.329,2.455,2.455,0,0,1-.148-.71c-.021-.286,0-.577,0-.863Z" transform="translate(-1972.662 -617.683)" fill="#fff"/>
      <path id="Path_3295" data-name="Path 3295" d="M1937.44,62.323c.2.006.4.006.6,0,.138,0,.161-.032.17-.166,0-.043,0-.086,0-.129V56.16c0-.049,0-.1,0-.151a.116.116,0,0,0-.123-.123c-.231,0-.458,0-.688,0a.135.135,0,0,0-.143.153v6c0,.037,0,.071,0,.108C1937.268,62.287,1937.291,62.319,1937.44,62.323Z" transform="translate(-1892.78 -54.68)" fill="#fff"/>
      <path id="Path_3296" data-name="Path 3296" d="M1811.838,150.02c0-.161-.045-.2-.206-.207-.136,0-.274,0-.409,0-.323,0-.323,0-.323.314v3.8c0,.05,0,.1,0,.151,0,.108.054.153.161.151.172,0,.344,0,.516,0,.237,0,.26-.024.263-.256,0-.645,0-1.289,0-1.934V150.71C1811.838,150.478,1811.842,150.25,1811.838,150.02Z" transform="translate(-1769.143 -146.586)" fill="#fff"/>
      <path id="Path_3297" data-name="Path 3297" d="M1806.169,63.16a.56.56,0,0,0,.574-.564.549.549,0,0,0-.57-.561.563.563,0,1,0,0,1.125Z" transform="translate(-1763.951 -60.697)" fill="#fff"/>
    </g>
  </g>
</svg>
