<?xml version="1.0" encoding="utf-8"?>
<!-- Generator: Adobe Illustrator 26.2.0, SVG Export Plug-In . SVG Version: 6.00 Build 0)  -->
<svg version="1.1" id="Layer_1" xmlns="http://www.w3.org/2000/svg" xmlns:xlink="http://www.w3.org/1999/xlink" x="0px" y="0px"
	 viewBox="0 0 55 55" style="enable-background:new 0 0 55 55;" xml:space="preserve">
<style type="text/css">
	.st0{fill:#FFFFFF;}
	.st1{fill-rule:evenodd;clip-rule:evenodd;}
</style>
<g>
	<rect id="qr_background" x="0.2" y="0" class="st0" width="54.8" height="54.8"/>
	<path id="qr_dark_pixels" class="st1" d="M23.2,1.8h1.8v1.8h-1.8V1.8z M26.7,1.8h1.8v1.8h1.8v1.8h-3.5V1.8z M30.2,1.8h7.1v1.8h-3.5
		v1.8H32V3.5h-1.8V1.8z M16.1,3.5h1.8v1.8h-1.8V3.5z M19.6,3.5h1.8v1.8h-1.8V3.5z M37.3,3.5h1.8v3.5h-1.8V3.5z M23.2,5.3h1.8v1.8
		h-1.8V5.3z M16.1,7.1h7.1v1.8h1.8V7.1h1.8v3.5h3.5V8.8h-1.8V7.1h5.3v1.8h1.8V7.1h1.8v1.8h1.8v7.1h-1.8v1.8h1.8v-1.8h1.8v1.8h1.8
		v1.8h1.8v1.8h-1.8V23h-3.5v-1.8h1.8v-1.8h-1.8v1.8h-1.8v-1.8h-3.5v1.8h-5.3v-1.8h1.8v-1.8H32v-1.8h1.8v1.8h1.8v-3.5h1.8v-3.5h-1.8
		v3.5h-1.8v-3.5H32v3.5h-1.8v-1.8h-1.8v1.8h1.8v3.5h-3.5v1.8h-5.3v1.8h-1.8v-3.5h1.8v-1.8h1.8v1.8h1.8v-1.8h1.8v-3.5h-1.8v-1.8h-3.5
		V8.8h-1.8v3.5h-1.8v1.8h-1.8v-3.5h1.8V8.8h-1.8V7.1z M19.6,12.4h1.8v3.5h-1.8v1.8h-1.8v1.8h-1.8v1.8H9v-3.5H7.3v1.8H5.5v-1.8H3.7
		v1.8h1.8v1.8H3.7v3.5H2v-8.8h8.8v3.5h3.5v-1.8h-1.8v-1.8h5.3v-1.8h1.8V12.4z M23.2,12.4h1.8v3.5h-1.8V12.4z M42.6,15.9h1.8v1.8
		h-1.8V15.9z M46.1,15.9h1.8v1.8h-1.8V15.9z M49.7,15.9h1.8v1.8h-1.8V15.9z M44.4,17.7h1.8v1.8h-1.8V17.7z M51.4,17.7h1.8v1.8h-1.8
		V17.7z M23.2,21.2h1.8V23h-1.8V21.2z M26.7,21.2h1.8v3.5h-3.5V23h1.8V21.2z M33.8,21.2h3.5V23h-1.8v1.8h7.1V23h1.8v1.8h1.8v1.8h3.5
		v1.8h-3.5V30h-1.8v-3.5h-3.5v1.8h-1.8v-1.8h-5.3v1.8h-3.5V30h-1.8v-1.8h-1.8v-1.8h3.5v-1.8H32V23h1.8V21.2z M44.4,21.2h3.5V23h1.8
		v1.8h-3.5V23h-1.8V21.2z M49.7,21.2h1.8V23h-1.8V21.2z M5.5,23h1.8v5.3H3.7V30H2v-3.5h1.8v-1.8h1.8V23z M10.8,23h10.6v1.8H10.8V23z
		 M9,24.7h1.8V30H9v1.8H7.3v1.8H5.5v-1.8H3.7V30h3.5v-1.8H9V24.7z M21.4,24.7h3.5v1.8h-3.5V24.7z M51.4,24.7h1.8v1.8h-1.8V24.7z
		 M12.6,26.5h3.5V30h-1.8v-1.8h-1.8V26.5z M17.9,28.3h3.5V30h-1.8v3.5h-1.8v1.8h-1.8v-1.8h-1.8v-1.8h1.8V30h1.8V28.3z M23.2,28.3
		h1.8V30h-1.8V28.3z M35.5,28.3h3.5V30h-1.8v3.5h-1.8v1.8h-1.8v-3.5h1.8V28.3z M49.7,28.3h1.8V30h-1.8V28.3z M10.8,30h3.5v1.8h-3.5
		V30z M21.4,30h1.8v1.8h1.8v5.3h-3.5v1.8h-1.8v1.8h-1.8v1.8h-1.8v-3.5h-3.5v-1.8h7.1v-1.8h3.5v-1.8h-1.8V30z M24.9,30h1.8v1.8h-1.8
		V30z M32,30h1.8v1.8H32V30z M42.6,30h1.8v1.8h1.8v5.3h-1.8v-3.5h-3.5v-1.8h1.8V30z M46.1,30h3.5v5.3h-1.8v-3.5h-1.8V30z M2,31.8
		h1.8v7.1H2V31.8z M9,31.8h1.8v1.8H9V31.8z M26.7,31.8h1.8v1.8h-1.8V31.8z M30.2,31.8H32v1.8h-1.8V31.8z M51.4,31.8h1.8v1.8h-1.8
		V31.8z M7.3,33.6H9v1.8H7.3V33.6z M12.6,33.6h1.8v1.8h-1.8V33.6z M28.5,33.6h1.8v1.8h-1.8V33.6z M37.3,33.6h3.5v3.5h-3.5V33.6z
		 M5.5,35.3h1.8v1.8h3.5v1.8H5.5V35.3z M10.8,35.3h1.8v1.8h-1.8V35.3z M26.7,35.3h1.8v1.8h-1.8V35.3z M49.7,35.3h1.8v1.8h1.8v3.5
		h-3.5v1.8h-3.5v-3.5h1.8v-1.8h1.8V35.3z M24.9,37.1h1.8v1.8h-1.8V37.1z M28.5,37.1h5.3v1.8H32v1.8h-1.8v-1.8h-1.8V37.1z M21.4,38.9
		h3.5v1.8h-3.5V38.9z M26.7,38.9h1.8v1.8h-1.8V38.9z M19.6,40.6h1.8v3.5h-1.8V40.6z M24.9,40.6h1.8v1.8h-1.8V40.6z M28.5,40.6h1.8
		v1.8H32v1.8h1.8v1.8H32v5.3h-1.8v-1.8h-1.8v-1.8h1.8v-1.8h-1.8v-1.8h-1.8v-1.8h1.8V40.6z M33.8,40.6h3.5v3.5h-3.5V40.6z M49.7,42.4
		h3.5v1.8h-1.8v1.8h-1.8v1.8h1.8v3.5h-1.8v-1.8h-1.8v1.8h-1.8V53h-1.8v-1.8h-1.8v-1.8h-1.8v-1.8h1.8v-1.8h1.8v1.8h1.8v-1.8h1.8v-1.8
		h1.8V42.4z M16.1,44.2h1.8v1.8h7.1v1.8h-7.1v1.8h1.8v1.8h-1.8V53h-1.8V44.2z M24.9,44.2h1.8v1.8h-1.8V44.2z M26.7,45.9h1.8v1.8
		h-1.8V45.9z M51.4,45.9h1.8v1.8h-1.8V45.9z M33.8,47.7h5.3v1.8h1.8V53h-1.8v-1.8h-1.8v-1.8h-1.8v1.8h1.8V53H32v-1.8h1.8V47.7z
		 M23.2,49.5h1.8v1.8h-1.8V49.5z M21.4,51.2h1.8V53h-1.8V51.2z M24.9,51.2h1.8V53h-1.8V51.2z M47.9,51.2h1.8V53h-1.8V51.2z"/>
	<path id="qr_squares" class="st1" d="M2,1.8h12.4l0,0l0,0v12.4l0,0l0,0H2l0,0l0,0V1.8L2,1.8L2,1.8z M3.7,3.5h8.8l0,0l0,0v8.8l0,0
		l0,0H3.7l0,0l0,0V3.5L3.7,3.5L3.7,3.5z M5.5,5.3h5.3l0,0l0,0v5.3l0,0l0,0H5.5l0,0l0,0V5.3L5.5,5.3L5.5,5.3z M40.8,1.8h12.4l0,0l0,0
		v12.4l0,0l0,0H40.8l0,0l0,0V1.8L40.8,1.8L40.8,1.8z M42.6,3.5h8.8l0,0l0,0v8.8l0,0l0,0h-8.8l0,0l0,0V3.5L42.6,3.5L42.6,3.5z
		 M44.4,5.3h5.3l0,0l0,0v5.3l0,0l0,0h-5.3l0,0l0,0V5.3L44.4,5.3L44.4,5.3z M2,40.6h12.4l0,0l0,0V53l0,0l0,0H2l0,0l0,0V40.6L2,40.6
		L2,40.6z M3.7,42.4h8.8l0,0l0,0v8.8l0,0l0,0H3.7l0,0l0,0V42.4L3.7,42.4L3.7,42.4z M5.5,44.2h5.3l0,0l0,0v5.3l0,0l0,0H5.5l0,0l0,0
		V44.2L5.5,44.2L5.5,44.2z M37.3,37.1h8.8l0,0l0,0v8.8l0,0l0,0h-8.8l0,0l0,0V37.1L37.3,37.1L37.3,37.1z M39.1,38.9h5.3l0,0l0,0v5.3
		l0,0l0,0h-5.3l0,0l0,0V38.9L39.1,38.9L39.1,38.9z M40.8,40.6h1.8l0,0l0,0v1.8l0,0l0,0h-1.8l0,0l0,0V40.6L40.8,40.6L40.8,40.6z"/>
</g>
</svg>
