<svg xmlns="http://www.w3.org/2000/svg" xmlns:xlink="http://www.w3.org/1999/xlink" width="142.883" height="54.586" viewBox="0 0 142.883 54.586">
  <defs>
    <linearGradient id="linear-gradient" x1="0.908" y1="1.032" x2="-0.383" y2="0.36" gradientUnits="objectBoundingBox">
      <stop offset="0" stop-color="#00a0ff"/>
      <stop offset="0.007" stop-color="#00a1ff"/>
      <stop offset="0.26" stop-color="#00beff"/>
      <stop offset="0.512" stop-color="#00d2ff"/>
      <stop offset="0.76" stop-color="#00dfff"/>
      <stop offset="1" stop-color="#00e3ff"/>
    </linearGradient>
    <linearGradient id="linear-gradient-2" x1="1.077" y1="0.729" x2="-1.307" y2="0.729" gradientUnits="objectBoundingBox">
      <stop offset="0" stop-color="#ffe000"/>
      <stop offset="0.409" stop-color="#ffbd00"/>
      <stop offset="0.775" stop-color="orange"/>
      <stop offset="1" stop-color="#ff9c00"/>
    </linearGradient>
    <linearGradient id="linear-gradient-3" x1="0.864" y1="-0.023" x2="-0.499" y2="-1.789" gradientUnits="objectBoundingBox">
      <stop offset="0" stop-color="#ff3a44"/>
      <stop offset="1" stop-color="#c31162"/>
    </linearGradient>
    <linearGradient id="linear-gradient-4" x1="-0.186" y1="2.701" x2="0.423" y2="1.909" gradientUnits="objectBoundingBox">
      <stop offset="0" stop-color="#32a071"/>
      <stop offset="0.069" stop-color="#2da771"/>
      <stop offset="0.476" stop-color="#15cf74"/>
      <stop offset="0.801" stop-color="#06e775"/>
      <stop offset="1" stop-color="#00f076"/>
    </linearGradient>
  </defs>
  <g id="Group_28012" data-name="Group 28012" transform="translate(-1497.227 -8187.041)">
    <path id="Path_32634" data-name="Path 32634" d="M0,0H142.883V54.586H0Z" transform="translate(1497.227 8187.041)"/>
    <g id="Group_27422" data-name="Group 27422" transform="translate(1520.227 8203.041)">
      <path id="Path_3403" data-name="Path 3403" d="M46.44,9.672a2.288,2.288,0,0,1-.588,1.68A2.6,2.6,0,0,1,41.4,9.5,2.581,2.581,0,0,1,44,6.9a2.236,2.236,0,0,1,1.008.252,1.829,1.829,0,0,1,.756.588l-.42.42A1.566,1.566,0,0,0,44,7.572a1.671,1.671,0,0,0-1.344.588,1.73,1.73,0,0,0-.588,1.428,1.73,1.73,0,0,0,.588,1.428A2.163,2.163,0,0,0,44,11.6a1.842,1.842,0,0,0,1.428-.588,1.391,1.391,0,0,0,.42-1.008H44V9.336H46.44v.336Zm3.864-2.1H48.035v1.6h2.1v.588h-2.1v1.6H50.3v.672h-2.94V6.984H50.3Zm2.772,4.452H52.4V7.572H50.975V6.984H54.5v.588H53.075Zm3.864,0V6.984h.672v5.04Zm3.528,0h-.672V7.572H58.367V6.984H61.81v.588H60.382v4.452Zm7.979-.672A2.6,2.6,0,0,1,63.994,9.5a2.6,2.6,0,1,1,5.208,0A2.47,2.47,0,0,1,68.446,11.352Zm-3.192-.42a1.982,1.982,0,0,0,1.344.588,1.671,1.671,0,0,0,1.344-.588A2.026,2.026,0,0,0,68.53,9.5a1.73,1.73,0,0,0-.588-1.428A1.982,1.982,0,0,0,66.6,7.488a1.671,1.671,0,0,0-1.344.588A2.026,2.026,0,0,0,64.666,9.5,1.73,1.73,0,0,0,65.254,10.932Zm4.872,1.092V6.984h.756l2.436,3.948V6.984h.672v5.04h-.672l-2.6-4.116v4.116Z" transform="translate(-15.026 -6.9)" fill="#fff" stroke="#fff" stroke-miterlimit="10" stroke-width="0.2"/>
      <path id="Path_3404" data-name="Path 3404" d="M63.778,21.048a3.534,3.534,0,0,0-3.612,3.612,3.585,3.585,0,0,0,3.612,3.612,3.534,3.534,0,0,0,3.612-3.612A3.485,3.485,0,0,0,63.778,21.048Zm0,5.711a2.191,2.191,0,0,1,0-4.368,2.035,2.035,0,0,1,2.016,2.184A2.085,2.085,0,0,1,63.778,26.759Zm-7.811-5.711a3.534,3.534,0,0,0-3.612,3.612,3.585,3.585,0,0,0,3.612,3.612,3.534,3.534,0,0,0,3.612-3.612A3.485,3.485,0,0,0,55.967,21.048Zm0,5.711a2.191,2.191,0,0,1,0-4.368,2.035,2.035,0,0,1,2.016,2.184A2.085,2.085,0,0,1,55.967,26.759Zm-9.323-4.62v1.512h3.612a3.176,3.176,0,0,1-.84,1.932,3.718,3.718,0,0,1-2.772,1.092A3.911,3.911,0,0,1,42.7,22.643a3.962,3.962,0,0,1,3.948-4.032A4.165,4.165,0,0,1,49.415,19.7l1.092-1.092a5.382,5.382,0,0,0-3.78-1.512A5.666,5.666,0,0,0,41.1,22.643a5.666,5.666,0,0,0,5.628,5.543,4.834,4.834,0,0,0,3.864-1.6,5.056,5.056,0,0,0,1.344-3.528,3.149,3.149,0,0,0-.084-.924Zm38.133,1.176a3.263,3.263,0,0,0-3.024-2.268,3.383,3.383,0,0,0-3.36,3.612,3.515,3.515,0,0,0,3.528,3.612,3.445,3.445,0,0,0,2.94-1.6l-1.176-.84a2.047,2.047,0,0,1-1.764,1.008,1.822,1.822,0,0,1-1.764-1.092l4.788-2.016ZM79.9,24.491a2.04,2.04,0,0,1,1.848-2.1,1.486,1.486,0,0,1,1.344.756Zm-3.948,3.444h1.6v-10.5h-1.6ZM73.437,21.8a2.766,2.766,0,0,0-1.932-.84,3.609,3.609,0,0,0-3.444,3.612A3.478,3.478,0,0,0,71.505,28.1a2.412,2.412,0,0,0,1.848-.84h.084v.5a1.91,1.91,0,0,1-3.7.84l-1.344.588a3.465,3.465,0,0,0,3.192,2.1c1.848,0,3.36-1.092,3.36-3.7V21.216H73.437Zm-1.848,4.956a2.191,2.191,0,0,1,0-4.368,2.021,2.021,0,0,1,1.932,2.184A2.021,2.021,0,0,1,71.589,26.759Zm20.494-9.323H88.3v10.5h1.6V23.987h2.184a3.28,3.28,0,1,0,0-6.551Zm.084,5.04H89.9V18.864h2.268a1.845,1.845,0,0,1,1.848,1.764,1.922,1.922,0,0,1-1.848,1.848Zm9.659-1.512a2.823,2.823,0,0,0-2.772,1.6l1.428.588a1.484,1.484,0,0,1,1.428-.756,1.578,1.578,0,0,1,1.68,1.344v.084a3.332,3.332,0,0,0-1.6-.42c-1.512,0-3.024.84-3.024,2.352a2.461,2.461,0,0,0,2.6,2.352,2.364,2.364,0,0,0,2.016-1.008h.084v.84h1.512V23.9a3.179,3.179,0,0,0-3.36-2.94Zm-.168,5.8c-.5,0-1.26-.252-1.26-.924,0-.84.924-1.092,1.68-1.092a3.248,3.248,0,0,1,1.428.336A1.956,1.956,0,0,1,101.659,26.759Zm8.819-5.543-1.764,4.536h-.084l-1.848-4.536H105.1l2.772,6.383-1.6,3.528h1.6l4.284-9.911h-1.68ZM96.367,27.935h1.6v-10.5h-1.6Z" transform="translate(-14.978 -8.533)" fill="#fff"/>
      <g id="Group_3212" data-name="Group 3212" transform="translate(0 0.228)">
        <path id="Path_3405" data-name="Path 3405" d="M10.336,7.5A1.642,1.642,0,0,0,10,8.676V27.238a1.662,1.662,0,0,0,.42,1.176l.084.084L20.919,18.083v-.168Z" transform="translate(-10 -7.224)" fill="url(#linear-gradient)"/>
        <path id="Path_3406" data-name="Path 3406" d="M26.344,22.939,22.9,19.5v-.252L26.344,15.8l.084.084,4.116,2.352a1.282,1.282,0,0,1,0,2.436Z" transform="translate(-12.065 -8.553)" fill="url(#linear-gradient-2)"/>
        <path id="Path_3407" data-name="Path 3407" d="M24.427,23.528,20.9,20,10.4,30.5c.42.42,1.008.42,1.764.084l12.263-7.055" transform="translate(-10.064 -9.225)" fill="url(#linear-gradient-3)"/>
        <path id="Path_3408" data-name="Path 3408" d="M24.427,14.419,12.164,7.447a1.361,1.361,0,0,0-1.764.084L20.9,17.946l3.528-3.528Z" transform="translate(-10.064 -7.171)" fill="url(#linear-gradient-4)"/>
      </g>
      <path id="Path_3409" data-name="Path 3409" d="M24.343,24.1,12.164,30.987a1.374,1.374,0,0,1-1.68,0l-.084.084.084.084a1.374,1.374,0,0,0,1.68,0Z" transform="translate(-10.064 -9.654)" opacity="0.2"/>
      <path id="Path_3410" data-name="Path 3410" d="M10.336,30.331A1.642,1.642,0,0,1,10,29.155v.084a1.662,1.662,0,0,0,.42,1.176v-.084Zm18.142-9.239-4.2,2.352.084.084,4.116-2.352A1.4,1.4,0,0,0,29.318,20C29.318,20.42,28.982,20.756,28.478,21.092Z" transform="translate(-10 -8.997)" opacity="0.12"/>
      <path id="Path_3411" data-name="Path 3411" d="M12.1,7.528l16.379,9.323c.5.336.84.672.84,1.092a1.4,1.4,0,0,0-.84-1.176L12.1,7.444C10.924,6.772,10,7.276,10,8.619V8.7C10,7.444,10.924,6.856,12.1,7.528Z" transform="translate(-10 -6.94)" fill="#fff" opacity="0.25"/>
    </g>
  </g>
</svg>
