<?xml version="1.0" encoding="utf-8"?>
<!-- Generator: Adobe Illustrator 26.2.0, SVG Export Plug-In . SVG Version: 6.00 Build 0)  -->
<svg version="1.1" id="Layer_1" xmlns="http://www.w3.org/2000/svg" xmlns:xlink="http://www.w3.org/1999/xlink" x="0px" y="0px"
	 viewBox="0 0 55 55" style="enable-background:new 0 0 55 55;" xml:space="preserve">
<style type="text/css">
	.st0{fill:#FFFFFF;}
	.st1{fill-rule:evenodd;clip-rule:evenodd;}
</style>
<rect id="qr_background" x="0" y="0.2" class="st0" width="54.9" height="54.9"/>
<path id="qr_dark_pixels" class="st1" d="M15.5,1.6h1.4v2.8h-1.4V1.6z M18.3,1.6h2.8V3h-2.8V1.6z M24,1.6h2.8V3h-1.4v2.8H24V4.4
	h-2.8V3H24V1.6z M28.2,1.6h1.4V3h-1.4V1.6z M33.8,1.6h1.4V3h-1.4V1.6z M38,1.6h1.4V3H38V1.6z M40.9,1.6h1.4V3h-1.4V1.6z M12.7,3h1.4
	v1.4h-1.4V3z M26.8,3h1.4v4.2h-2.8V5.8h1.4V3z M32.4,3h1.4v1.4h1.4v1.4h4.2V3h1.4v2.8h1.4v5.6h-1.4v-1.4h-1.4V8.7h1.4V7.3h-1.4v1.4
	H38V7.3h-1.4v1.4h-2.8V7.3h-1.4V5.8H31V4.4h1.4V3z M35.2,3h1.4v1.4h-1.4V3z M18.3,4.4h1.4v1.4h1.4v1.4h1.4v1.4H24v1.4h-1.4v2.8H24
	v1.4h-1.4v1.4H24v1.4h-1.4v2.8h2.8v1.4h2.8v4.2h-2.8v-1.4h1.4v-1.4H24v1.4h-2.8v-1.4h1.4v-1.4h-1.4V8.7h-1.4V7.3h-1.4V4.4z
	 M12.7,5.8h4.2v1.4h-1.4v2.8h-1.4v1.4h-1.4V8.7h1.4V7.3h-1.4V5.8z M22.6,5.8H24v1.4h-1.4V5.8z M29.6,5.8H31v1.4h-1.4V5.8z M24,7.3
	h1.4v1.4H24V7.3z M28.2,7.3h1.4v1.4h-1.4V7.3z M16.9,8.7h2.8v2.8h-1.4v-1.4h-1.4V8.7z M25.4,8.7h2.8v5.6h-2.8v-1.4h1.4v-2.8h-1.4
	V8.7z M29.6,8.7h2.8v1.4H31v1.4h1.4v1.4H31v1.4h-1.4V8.7z M36.6,8.7H38v1.4h-1.4V8.7z M15.5,10.1h1.4v1.4h1.4v2.8h-1.4v-1.4h-1.4
	v1.4h-1.4v1.4h1.4v2.8h1.4v1.4h-1.4v1.4h-1.4v-2.8h-2.8v-1.4H8.5v-1.4h4.2v-1.4H9.9v-1.4h4.2v-1.4h1.4V10.1z M24,10.1h1.4v2.8H24
	V10.1z M32.4,10.1h1.4v1.4h-1.4V10.1z M35.2,10.1h1.4v1.4h-1.4V10.1z M38,10.1h1.4v1.4h1.4v2.8h-1.4v-1.4H38V10.1z M1.5,12.9h7v2.8
	H7.1v-1.4H4.3v2.8H2.9v-1.4H1.5V12.9z M32.4,12.9H38v2.8h2.8v-1.4h1.4v1.4h2.8v1.4h2.8v-4.2h1.4v1.4h1.4v-1.4h1.4v2.8h-1.4v1.4h-1.4
	v1.4h1.4v1.4h1.4v1.4h1.4v4.2h-1.4v-2.8h-2.8v-2.8h-2.8v-1.4h-1.4v1.4h-1.4v-1.4h-2.8v-1.4h-1.4v2.8h-4.2v1.4H31v-1.4h1.4v-1.4H31
	v-1.4h1.4v-1.4h1.4v1.4h1.4v1.4H38v-1.4h-1.4v-2.8h-1.4v1.4h-1.4v-1.4h-1.4V12.9z M42.3,12.9h1.4v1.4h-1.4V12.9z M45.1,12.9h1.4v2.8
	h-1.4V12.9z M15.5,14.3h1.4v1.4h-1.4V14.3z M18.3,14.3h1.4v1.4h-1.4V14.3z M28.2,14.3h1.4v1.4h-1.4V14.3z M26.8,15.7h1.4v1.4h-1.4
	V15.7z M29.6,15.7H31v1.4h-1.4V15.7z M52.1,15.7h1.4v1.4h-1.4V15.7z M1.5,17.1h1.4v8.4H1.5V17.1z M5.7,17.1h1.4v1.4H5.7V17.1z
	 M18.3,17.1h1.4v2.8h-1.4V17.1z M24,17.1h1.4v1.4H24V17.1z M50.7,17.1h1.4v1.4h-1.4V17.1z M4.3,18.5h1.4v1.4H4.3V18.5z M9.9,18.5
	h1.4v1.4H9.9V18.5z M25.4,18.5h2.8v1.4h-2.8V18.5z M29.6,18.5H31v1.4h-1.4V18.5z M52.1,18.5h1.4v1.4h-1.4V18.5z M28.2,19.9h1.4v1.4
	h-1.4V19.9z M45.1,19.9h1.4v1.4h1.4v1.4h-1.4v1.4h-1.4V19.9z M4.3,21.3h1.4v1.4H4.3V21.3z M8.5,21.3h4.2v4.2h1.4v-1.4h2.8v-2.8h4.2
	v1.4h-2.8v2.8h-1.4v2.8h-1.4v-1.4h-1.4v1.4h1.4v1.4h-4.2v-1.4h1.4v-1.4h-1.4v-1.4H9.9v1.4h1.4v1.4H9.9v1.4H8.5v-4.2H7.1v1.4H5.7v1.4
	H4.3v-4.2h7v-1.4H8.5V21.3z M38,21.3h5.6v1.4h-1.4v1.4h-1.4v1.4h-5.6v-1.4h-1.4v1.4h-1.4v-1.4H31v2.8h-2.8v-1.4h1.4v-2.8h7v1.4h2.8
	v-1.4H38V21.3z M47.9,22.7h1.4v1.4h1.4v1.4h1.4v1.4h1.4v4.2h-1.4v1.4h1.4v4.2h-1.4v1.4h1.4V41h-1.4v-1.4h-1.4v-1.4h-1.4v-1.4h-2.8
	v-1.4h-1.4v-4.2h1.4v1.4h1.4v-1.4h1.4V34h-1.4v1.4h4.2V34h-1.4v-2.8h-1.4v-1.4h2.8v-1.4h-2.8v-2.8h-2.8v-1.4h1.4V22.7z M42.3,24.1
	h2.8v1.4h-2.8V24.1z M18.3,25.5h2.8v1.4h1.4v-1.4h2.8v1.4h1.4v1.4h-1.4v1.4h2.8v1.4h-2.8v1.4H24V34h-1.4v-2.8H24v-2.8h-2.8v1.4h-1.4
	v1.4h-1.4v-2.8h1.4v-1.4h-1.4V25.5z M33.8,25.5h1.4v1.4h-1.4V25.5z M40.9,25.5h1.4v1.4h-1.4V25.5z M45.1,25.5h1.4v1.4h1.4v4.2h-1.4
	v-1.4h-1.4v-1.4h-1.4v-1.4h1.4V25.5z M31,26.9h1.4v2.8H31V26.9z M38,26.9h2.8v1.4h-1.4v1.4h2.8v-1.4h1.4v1.4h1.4v1.4h-2.8v1.4h1.4
	v2.8h1.4v1.4h-2.8v-1.4h-1.4V34H38v-2.8h-1.4v-1.4H38V26.9z M39.4,31.2h1.4v1.4h-1.4V31.2z M1.5,28.4h1.4v2.8h1.4V34H1.5V28.4z
	 M28.2,28.4h1.4v1.4h-1.4V28.4z M9.9,29.8h1.4v1.4H9.9V29.8z M15.5,29.8h1.4v1.4h-1.4V29.8z M21.2,29.8h1.4v1.4h-1.4V29.8z
	 M29.6,29.8H31V34h-1.4v-1.4h-1.4v-1.4h1.4V29.8z M32.4,29.8h2.8v1.4h1.4V34h-1.4v-1.4h-1.4v-1.4h-1.4V29.8z M11.3,31.2h2.8v1.4
	h-1.4v4.2H7.1v-1.4h4.2V34H9.9v-1.4h1.4V31.2z M5.7,32.6h2.8V34H7.1v1.4H5.7V32.6z M14.1,32.6h1.4v4.2h1.4v2.8h-1.4v-1.4h-1.4V32.6z
	 M16.9,32.6h2.8V34h-1.4v2.8h-1.4V32.6z M26.8,32.6h1.4V34h-1.4V32.6z M32.4,32.6h1.4v4.2h1.4v1.4h-2.8V41H31v-1.4h-1.4v-1.4h-1.4
	v-1.4h4.2v-1.4H31V34h1.4V32.6z M21.2,34h1.4v1.4h-1.4V34z M24,34h1.4v1.4H24V34z M1.5,35.4h1.4v7H1.5V35.4z M25.4,35.4h2.8v1.4
	h-1.4v1.4h-1.4V41H24v1.4h-2.8V41h1.4v-1.4h-1.4V41h-1.4v1.4h-1.4v-2.8h1.4v-1.4h-1.4v-1.4h4.2v1.4H24v-1.4h1.4V35.4z M35.2,35.4
	h4.2v1.4h-4.2V35.4z M4.3,36.8h1.4v1.4H4.3V36.8z M40.9,36.8h1.4v1.4h-1.4V36.8z M45.1,36.8h1.4v1.4h2.8v1.4h-2.8V41h-5.6v1.4H38
	v1.4h-1.4v-1.4h-1.4v1.4h-1.4V41h1.4v-1.4h1.4V41H38v-1.4h1.4v-1.4h1.4v1.4h1.4v-1.4h1.4v1.4h1.4V36.8z M7.1,38.2h4.2v1.4H7.1V38.2z
	 M26.8,38.2h1.4v1.4h1.4v2.8H31v2.8h-1.4v-1.4h-2.8v-1.4h-1.4V41h1.4V38.2z M4.3,39.6h2.8v2.8H4.3V39.6z M11.3,39.6h2.8V41h-1.4v1.4
	H8.5V41h2.8V39.6z M14.1,41h2.8v2.8h2.8v1.4h-1.4v2.8h-4.2v2.8h1.4v1.4h-1.4v1.4h-1.4v-7h1.4v-1.4h1.4v1.4h1.4v-1.4h-1.4v-1.4h-1.4
	v1.4h-1.4v-2.8h1.4V41z M47.9,41h2.8v1.4h-1.4v1.4h-1.4V41z M24,42.4h1.4v1.4h1.4v1.4h-1.4v1.4h1.4v1.4h1.4v-1.4h1.4v1.4H31v-2.8
	h1.4v1.4h1.4v-1.4h1.4v2.8h1.4v-1.4H38v-1.4h1.4v1.4h1.4v1.4H38v1.4h-4.2v1.4h-1.4v1.4H31v-2.8h-2.8v1.4h1.4v1.4h-2.8v-2.8h-1.4
	v-1.4H24v-1.4h-2.8v-1.4h1.4v-1.4H24V42.4z M32.4,43.8h1.4v1.4h-1.4V43.8z M50.7,43.8h2.8v1.4h-2.8V43.8z M26.8,45.2h1.4v1.4h-1.4
	V45.2z M49.3,46.6h1.4v1.4h2.8v5.6h-8.4v-1.4h1.4v-1.4h2.8v1.4h2.8v-1.4h-1.4v-1.4h-4.2v-1.4h2.8V46.6z M18.3,48.1h4.2v1.4H24v1.4
	h1.4v1.4h-2.8v-1.4h-1.4v1.4h-1.4v1.4h-1.4v-2.8h1.4v-1.4h-1.4V48.1z M40.9,48.1h1.4v1.4h-1.4V48.1z M43.7,48.1h1.4v1.4h-1.4V48.1z
	 M38,49.5h2.8v1.4H38V49.5z M45.1,49.5h1.4v1.4h-1.4V49.5z M33.8,50.9h2.8v1.4h-2.8V50.9z M40.9,50.9h2.8v2.8h-1.4v-1.4h-1.4V50.9z
	 M21.2,52.3h1.4v1.4h-1.4V52.3z M25.4,52.3h1.4v1.4h-1.4V52.3z M29.6,52.3H31v1.4h-1.4V52.3z M32.4,52.3h1.4v1.4h-1.4V52.3z
	 M36.6,52.3h2.8v1.4h-2.8V52.3z"/>
<path id="qr_squares" class="st1" d="M1.5,1.6h9.8l0,0l0,0v9.8l0,0l0,0H1.5l0,0l0,0V1.6L1.5,1.6L1.5,1.6z M2.9,3h7l0,0l0,0v7l0,0
	l0,0h-7l0,0l0,0V3L2.9,3L2.9,3z M4.3,4.4h4.2l0,0l0,0v4.2l0,0l0,0H4.3l0,0l0,0V4.4L4.3,4.4L4.3,4.4z M43.7,1.6h9.8l0,0l0,0v9.8l0,0
	l0,0h-9.8l0,0l0,0V1.6L43.7,1.6L43.7,1.6z M45.1,3h7l0,0l0,0v7l0,0l0,0h-7l0,0l0,0V3L45.1,3L45.1,3z M46.5,4.4h4.2l0,0l0,0v4.2l0,0
	l0,0h-4.2l0,0l0,0V4.4L46.5,4.4L46.5,4.4z M1.5,43.8h9.8l0,0l0,0v9.8l0,0l0,0H1.5l0,0l0,0V43.8L1.5,43.8L1.5,43.8z M2.9,45.2h7l0,0
	l0,0v7l0,0l0,0h-7l0,0l0,0V45.2L2.9,45.2L2.9,45.2z M4.3,46.6h4.2l0,0l0,0v4.2l0,0l0,0H4.3l0,0l0,0V46.6L4.3,46.6L4.3,46.6z
	 M40.9,41h7l0,0l0,0v7l0,0l0,0h-7l0,0l0,0V41L40.9,41L40.9,41z M42.3,42.4h4.2l0,0l0,0v4.2l0,0l0,0h-4.2l0,0l0,0V42.4L42.3,42.4
	L42.3,42.4z M43.7,43.8h1.4l0,0l0,0v1.4l0,0l0,0h-1.4l0,0l0,0V43.8L43.7,43.8L43.7,43.8z"/>
</svg>
