<svg xmlns="http://www.w3.org/2000/svg" width="150.655" height="44.031" viewBox="0 0 150.655 44.031">
  <g id="Group_28019" data-name="Group 28019" transform="translate(-279.361 -10.936)">
    <g id="Group_28017" data-name="Group 28017" transform="translate(-2576.031 237.285)">
      <path id="Path_48487" data-name="Path 48487" d="M2918.349-210.44h-5.535v18.193a3.349,3.349,0,0,1-.7,2.332,2.35,2.35,0,0,1-1.811.76,2.383,2.383,0,0,1-1.836-.769,3.324,3.324,0,0,1-.709-2.323V-210.44h-5.534a2.8,2.8,0,0,1-1.931-.572,1.941,1.941,0,0,1-.632-1.512,1.919,1.919,0,0,1,.658-1.537,2.849,2.849,0,0,1,1.905-.564h16.126a2.837,2.837,0,0,1,1.956.581,1.956,1.956,0,0,1,.641,1.52,1.919,1.919,0,0,1-.649,1.512A2.871,2.871,0,0,1,2918.349-210.44Z" transform="translate(0 -1.555)" fill="#3171bc"/>
      <path id="Path_48488" data-name="Path 48488" d="M2992.964-172.2v3.895a3,3,0,0,1-.666,2.127,2.221,2.221,0,0,1-1.691.709,2.134,2.134,0,0,1-1.657-.717,3.06,3.06,0,0,1-.649-2.118v-12.983q0-3.143,2.272-3.143a1.9,1.9,0,0,1,1.674.734,4.054,4.054,0,0,1,.564,2.17,8.16,8.16,0,0,1,1.717-2.17,3.549,3.549,0,0,1,2.349-.734,6.015,6.015,0,0,1,2.853.734,2.194,2.194,0,0,1,1.384,1.948,1.852,1.852,0,0,1-.589,1.409,1.83,1.83,0,0,1-1.273.555,5.861,5.861,0,0,1-1.238-.316,5.762,5.762,0,0,0-1.734-.316,2.535,2.535,0,0,0-1.674.538,3.449,3.449,0,0,0-1.008,1.6,11.13,11.13,0,0,0-.5,2.52Q2992.964-174.3,2992.964-172.2Z" transform="translate(-69.535 -25.243)" fill="#3171bc"/>
      <path id="Path_48489" data-name="Path 48489" d="M3055.417-211.095a2.46,2.46,0,0,1-1.666-.6,2.114,2.114,0,0,1-.692-1.691,2.1,2.1,0,0,1,.709-1.631,2.382,2.382,0,0,1,1.648-.641,2.446,2.446,0,0,1,1.606.581,2.072,2.072,0,0,1,.7,1.691,2.133,2.133,0,0,1-.683,1.683A2.363,2.363,0,0,1,3055.417-211.095Zm2.306,4.817V-192.8a3.009,3.009,0,0,1-.666,2.118,2.207,2.207,0,0,1-1.691.717,2.106,2.106,0,0,1-1.666-.735,3.1,3.1,0,0,1-.64-2.1v-13.342a3,3,0,0,1,.64-2.084,2.153,2.153,0,0,1,1.666-.7,2.233,2.233,0,0,1,1.691.7A2.711,2.711,0,0,1,3057.723-206.278Z" transform="translate(-120.336 -0.746)" fill="#3171bc"/>
      <path id="Path_48490" data-name="Path 48490" d="M3113.092-192.845l-4.116-6.765-2.529,2.392v3.707a2.848,2.848,0,0,1-.709,2.076,2.218,2.218,0,0,1-1.631.726,2.11,2.11,0,0,1-1.691-.717,3.177,3.177,0,0,1-.615-2.118V-213.43a3.954,3.954,0,0,1,.6-2.366,1.994,1.994,0,0,1,1.708-.811,2.139,2.139,0,0,1,1.708.735,3.248,3.248,0,0,1,.632,2.17v11.309l5.244-5.5a12.923,12.923,0,0,1,1.486-1.4,2.052,2.052,0,0,1,1.247-.376,2.018,2.018,0,0,1,1.452.555,1.847,1.847,0,0,1,.581,1.392q0,1.025-1.9,2.733l-2.477,2.272,4.783,7.516q.53.837.76,1.273a1.778,1.778,0,0,1,.231.829,2.443,2.443,0,0,1-.607,1.751,2.1,2.1,0,0,1-1.6.641,1.778,1.778,0,0,1-1.315-.461A11.113,11.113,0,0,1,3113.092-192.845Z" transform="translate(-158.571)" fill="#ff983b"/>
      <path id="Path_48491" data-name="Path 48491" d="M3192.047-168.222a14.437,14.437,0,0,1-3.271,1.973,9.149,9.149,0,0,1-3.544.658,6.719,6.719,0,0,1-3.152-.709,5.185,5.185,0,0,1-2.092-1.922,4.986,4.986,0,0,1-.735-2.631,4.711,4.711,0,0,1,1.213-3.263,6.067,6.067,0,0,1,3.332-1.811q.444-.1,2.2-.461t3.015-.658q1.256-.3,2.725-.726a4.866,4.866,0,0,0-.743-2.708q-.658-.863-2.725-.863a5.678,5.678,0,0,0-2.674.5,4.342,4.342,0,0,0-1.538,1.486,15.7,15.7,0,0,1-.905,1.307,1.484,1.484,0,0,1-1.136.316,1.985,1.985,0,0,1-1.358-.5,1.64,1.64,0,0,1-.572-1.29,3.945,3.945,0,0,1,.871-2.392,6.233,6.233,0,0,1,2.716-1.913,12.243,12.243,0,0,1,4.6-.752,13,13,0,0,1,4.834.726,4.5,4.5,0,0,1,2.486,2.3,10.051,10.051,0,0,1,.726,4.168q0,1.64-.008,2.785t-.026,2.545a9.363,9.363,0,0,0,.436,2.742,8.672,8.672,0,0,1,.435,1.837,1.719,1.719,0,0,1-.675,1.307,2.262,2.262,0,0,1-1.529.589,2.062,2.062,0,0,1-1.418-.675A10,10,0,0,1,3192.047-168.222Zm-.307-6.748a23.487,23.487,0,0,1-2.981.794q-1.956.419-2.707.615a3.689,3.689,0,0,0-1.435.769,1.97,1.97,0,0,0-.683,1.6,2.365,2.365,0,0,0,.8,1.8,2.971,2.971,0,0,0,2.1.743,5.465,5.465,0,0,0,2.554-.606,4.048,4.048,0,0,0,1.717-1.563,7.142,7.142,0,0,0,.632-3.485Z" transform="translate(-219.329 -25.119)" fill="#ff983b"/>
      <path id="Path_48492" data-name="Path 48492" d="M3275.149-172.2v3.895a3,3,0,0,1-.666,2.127,2.221,2.221,0,0,1-1.691.709,2.135,2.135,0,0,1-1.657-.717,3.06,3.06,0,0,1-.649-2.118v-12.983q0-3.143,2.272-3.143a1.9,1.9,0,0,1,1.674.734,4.052,4.052,0,0,1,.564,2.17,8.16,8.16,0,0,1,1.717-2.17,3.548,3.548,0,0,1,2.349-.734,6.017,6.017,0,0,1,2.853.734,2.194,2.194,0,0,1,1.384,1.948,1.851,1.851,0,0,1-.59,1.409,1.829,1.829,0,0,1-1.273.555,5.858,5.858,0,0,1-1.239-.316,5.763,5.763,0,0,0-1.734-.316,2.536,2.536,0,0,0-1.674.538,3.452,3.452,0,0,0-1.008,1.6,11.129,11.129,0,0,0-.5,2.52Q3275.15-174.3,3275.149-172.2Z" transform="translate(-290.899 -25.243)" fill="#ff983b"/>
      <path id="Path_48493" data-name="Path 48493" d="M3337.013-207.085h.512v-2.8q0-1.128.06-1.768a2.612,2.612,0,0,1,.333-1.1,2.1,2.1,0,0,1,.786-.777,2.23,2.23,0,0,1,1.144-.3,2.3,2.3,0,0,1,1.606.666,1.974,1.974,0,0,1,.607,1.085,9.9,9.9,0,0,1,.128,1.819v3.177h1.708a2.188,2.188,0,0,1,1.512.47,1.549,1.549,0,0,1,.521,1.2,1.348,1.348,0,0,1-.743,1.315,4.823,4.823,0,0,1-2.127.376h-.871v8.576a13.92,13.92,0,0,0,.077,1.683,1.714,1.714,0,0,0,.41.957,1.4,1.4,0,0,0,1.084.367,5.791,5.791,0,0,0,1.11-.145,5.779,5.779,0,0,1,1.093-.145,1.406,1.406,0,0,1,1.017.453,1.521,1.521,0,0,1,.453,1.119,1.872,1.872,0,0,1-1.23,1.725,8.314,8.314,0,0,1-3.536.6,6.106,6.106,0,0,1-3.314-.735,3.407,3.407,0,0,1-1.478-2.033,13.782,13.782,0,0,1-.35-3.468v-8.952h-.615a2.22,2.22,0,0,1-1.538-.478,1.561,1.561,0,0,1-.529-1.213,1.506,1.506,0,0,1,.555-1.2A2.438,2.438,0,0,1,3337.013-207.085Z" transform="translate(-341.386 -2.176)" fill="#ff983b"/>
    </g>
    <g id="Group_28018" data-name="Group 28018" transform="translate(7533.361 20157.377)">
      <path id="Path_48478" data-name="Path 48478" d="M2569.621-303.307l-4.142-4.889a1.864,1.864,0,0,0-.885-.637c-.125-.045-.258-.166-.4-.166h-12.57c-.654,0-1.625.718-1.625,1.372v.985c0,.654.971.792,1.625.792h11.733l3.676,4.537a1.714,1.714,0,0,0,2.39.3A1.583,1.583,0,0,0,2569.621-303.307Z" transform="translate(-9804 -19837.441)" fill="#3171bc"/>
      <g id="Group_28013" data-name="Group 28013" transform="translate(-7236.747 -20137.105)" opacity="0.48">
        <path id="Path_48479" data-name="Path 48479" d="M2691.821-240.815a10.762,10.762,0,0,1,.995.962,10.774,10.774,0,0,1-.717,15.22,10.774,10.774,0,0,1-15.22-.716,10.75,10.75,0,0,1-.864-1.08,10.775,10.775,0,0,0,14.226-.246A10.775,10.775,0,0,0,2691.821-240.815Z" transform="translate(-2676.015 240.815)" fill="#fbac34"/>
      </g>
      <path id="Path_48480" data-name="Path 48480" d="M2677.471-60.511a17.16,17.16,0,0,1-3.877-.453,18.512,18.512,0,0,1-5.974-2.52,1.263,1.263,0,0,1-.307-1.759,1.263,1.263,0,0,1,1.757-.309,16.289,16.289,0,0,0,5.182,2.147,15.788,15.788,0,0,0,12.115-2.2,1.263,1.263,0,0,1,1.76.308,1.263,1.263,0,0,1-.308,1.759A19.245,19.245,0,0,1,2677.471-60.511Z" transform="translate(-9905.052 -20047.318)" fill="#3171bc"/>
      <g id="Group_28014" data-name="Group 28014" transform="translate(-7238.16 -20108.418)">
        <path id="Path_48481" data-name="Path 48481" d="M2668.692-25.276a3.007,3.007,0,0,1-3-3,3.007,3.007,0,0,1,3-3,3.008,3.008,0,0,1,3,3A3.007,3.007,0,0,1,2668.692-25.276Zm0-4.413a1.41,1.41,0,0,0-1.408,1.409,1.41,1.41,0,0,0,1.408,1.408,1.41,1.41,0,0,0,1.408-1.408A1.41,1.41,0,0,0,2668.692-29.688Z" transform="translate(-2665.688 31.284)" fill="#3171bc"/>
      </g>
      <g id="Group_28015" data-name="Group 28015" transform="translate(-7222.172 -20108.418)">
        <path id="Path_48482" data-name="Path 48482" d="M2785.47-25.276a3.007,3.007,0,0,1-3-3,3.007,3.007,0,0,1,3-3,3.007,3.007,0,0,1,3,3A3.007,3.007,0,0,1,2785.47-25.276Zm0-4.413a1.41,1.41,0,0,0-1.408,1.409,1.41,1.41,0,0,0,1.408,1.408,1.41,1.41,0,0,0,1.408-1.408A1.41,1.41,0,0,0,2785.47-29.688Z" transform="translate(-2782.466 31.284)" fill="#3171bc"/>
      </g>
      <g id="Group_28016" data-name="Group 28016" transform="translate(-7242.724 -20143.754)">
        <path id="Path_48483" data-name="Path 48483" d="M2647.4-289.367a15.063,15.063,0,0,0-15.046,15.046,14.992,14.992,0,0,0,4.274,10.49l-2.93,3.223a1.431,1.431,0,0,0,.1,2.015l.243.22a1.43,1.43,0,0,0,2.015-.1l3.025-3.327a14.954,14.954,0,0,0,8.324,2.52,15.063,15.063,0,0,0,15.045-15.046A15.063,15.063,0,0,0,2647.4-289.367Zm0,26.663a11.631,11.631,0,0,1-11.618-11.618,11.631,11.631,0,0,1,11.618-11.617,11.63,11.63,0,0,1,11.617,11.617A11.631,11.631,0,0,1,2647.4-262.7Z" transform="translate(-2632.355 289.367)" fill="#ff983b"/>
      </g>
      <path id="Path_48484" data-name="Path 48484" d="M2690.488-227.622l.852,5.11v1.733h-6.754s-2.79-.675-2.144-2.819a4.831,4.831,0,0,1,.881-1.762s.441.147.441.323-.763,1.586-.206,2,.029.528,1.879.646,4.7-.059,4.7-.059l-.734-5.667a.673.673,0,0,1-.47-.852,11.319,11.319,0,0,1,.47-1.527s.264-.117.441.382,1.145.646,1.145.646S2691.076-227.563,2690.488-227.622Z" transform="translate(-9918.225 -19905.184)" fill="#ff983b"/>
      <path id="Path_48485" data-name="Path 48485" d="M2758.034-201.191s-.675-.294-.44,1.556c.47,1.051,3.465.587,4.434.587.5,0,.44-5.7-2.242-6.284,0,0-.372,1.41-.2,1.644s1.644.029,1.762,3.025c0,.059-2.79,0-2.79,0A3.551,3.551,0,0,1,2758.034-201.191Z" transform="translate(-9983.128 -19926.916)" fill="#ff983b"/>
      <path id="Path_48486" data-name="Path 48486" d="M2703.379-215.029l-.155,1.109s-1.264.567-.98.7.8-.129,1.264.155.129,1.806-.464,2.063-.851.619-3.1,0a.411.411,0,0,1,.232-.516,6.292,6.292,0,0,0,1.444.1c.412-.077,1.238-.284,1.109-.645s-.542,0-.542,0-.98.213-.877-.783S2703.1-215.287,2703.379-215.029Z" transform="translate(-9933.399 -19918.52)" fill="#ff983b"/>
      <circle id="Ellipse_14764" data-name="Ellipse 14764" cx="1.343" cy="1.343" r="1.343" transform="translate(-7227.371 -20125.32)" fill="#ff983b"/>
    </g>
  </g>
</svg>
